<?xml version="1.0" encoding="utf-8"?>
<!-- Generator: Adobe Illustrator 22.1.0, SVG Export Plug-In . SVG Version: 6.00 Build 0)  -->
<svg version="1.1" id="Layer_1" xmlns="http://www.w3.org/2000/svg" xmlns:xlink="http://www.w3.org/1999/xlink" x="0px" y="0px"
	 viewBox="0 0 263 223" style="enable-background:new 0 0 263 223;" xml:space="preserve">
<style type="text/css">
	.st0{fill-rule:evenodd;clip-rule:evenodd;fill:none;stroke:#0F285A;stroke-miterlimit:10;}
	.st1{fill-rule:evenodd;clip-rule:evenodd;fill:#0F285A;}
	.st2{fill-rule:evenodd;clip-rule:evenodd;fill:#FFFFFF;}
</style>
<ellipse transform="matrix(0.7309 -0.6824 0.6824 0.7309 -41.2595 118.3194)" class="st0" cx="129.4" cy="111.5" rx="139" ry="31"/>
<circle class="st1" cx="178.7" cy="34.1" r="7.5"/>
<circle class="st1" cx="32.3" cy="208.6" r="7.5"/>
<ellipse transform="matrix(0.6824 -0.7309 0.7309 0.6824 -37.9495 128.5682)" class="st0" cx="129" cy="108" rx="31" ry="139"/>
<circle class="st1" cx="48.3" cy="68.3" r="7.5"/>
<circle class="st1" cx="226.2" cy="205.1" r="7.5"/>
<path class="st2" d="M124.2,66.1l-38,47l-9.8-9l-7.3-14.5l-44.4,55.3c0,0,14.1,5,16,5s15-1.5,15-1.5l10.4-2.8l5.6-5.6l8.6-5.9l3-4
	l12-8.5L72.7,149l-1.5,10.1l132-5.5v-33.8l-14.6-24.5l-7.2-13.1l-16.7,14.9l-4.8,4.8l-10.3-12l-4,1.1L124.2,66.1z"/>
<path class="st1" d="M91.4,114.7l-0.2-6.2l33.2-40.2l15.4,30.3l-15.2,15.2L123,96.6l-8.4,11.4l-4-4.2l-9.2,10.8l5.7-11.9l-8.8,7.5
	l14.9-23.5L91.4,114.7L91.4,114.7z M69,95.3l6.2,36.9l-5.7-13.8l-6.6,20.2l-8.6-5.5l-9.2,9.5l3.1-17.6l-15.8,10.8L69,95.3L69,95.3z
	 M145.7,90.9l-21.3-28.8l-36.5,44.2L70.1,85L5.4,158.6l67.3-9.7l37.6-37.1l6.6,22.2l32.8-41.1l10.6,11l18.2-18.7l12.7,37.4
	l-16.9,8.1l-2.2-28.1L151.4,141l-27.7,8.8l30.1-36.5l-3.7-10.8l-16.5,22.9l-2.6-2.9l-15.4,17.6l-6.8-21.8l-4.4,25.7l-4.2-2.2
	l-4.2,3.7l1.1-9.7l-11.4,16.5l-14.5,6.6l182.2,1.8l-74.1-80.9L160,100.2l-10.3-14.3L145.7,90.9z"/>
</svg>
